<svg xmlns="http://www.w3.org/2000/svg" width="512" height="512" style="shape-rendering:geometricPrecision;text-rendering:geometricPrecision;image-rendering:optimizeQuality;fill-rule:evenodd;clip-rule:evenodd"><path d="M243.5 20.5q69.038-4.11 105.5 54 27 53 0 106-36.428 58.34-105.5 53.5-67.562-10.155-90.5-74.5Q133.862 79.08 202.5 34q19.44-10.564 41-13.5m10 40q4.507-.37 7.5 3a1874 1874 0 0 0 18.5 36.5q20.88 3.913 42 7 5.436 3.242 3.5 9.5a614 614 0 0 1-30 29 548 548 0 0 0 6.5 42q-.733 8.373-9 6.5a1091 1091 0 0 0-37-18.5 1091 1091 0 0 0-37 18.5q-5.769 1.736-8.5-3.5 2.838-22.53 6-45a614 614 0 0 1-30-29q-1.936-6.258 3.5-9.5a639 639 0 0 0 42-7A1874 1874 0 0 0 250 63.5a30 30 0 0 1 3.5-3" style="opacity:.974"/><path d="M95.5 205.5q4.724-.433 9 1.5l50.5 50.5q3 5 0 10L103.5 319q-5.196 1.225-10-1L43 267.5q-3.056-5.751 1-11a3701 3701 0 0 1 51.5-51" style="opacity:.965"/><path d="M204.5 247.5q51.003-.25 102 .5 3.522.52 5.5 3.5a13800 13800 0 0 1 0 235q-.75 2.75-3.5 3.5-53 1-106 0-2.75-.75-3.5-3.5a13800 13800 0 0 1 0-235q2.25-2.953 5.5-4" style="opacity:.993"/><path d="M387.5 290.5q24.005-.25 48 .5l3 1.5a453 453 0 0 1 31 48.5 480 480 0 0 1-32 49 174 174 0 0 1-25.5 1.5 174 174 0 0 1-25.5-1.5 934 934 0 0 1-29.5-42.5q-5-6.5 0-13a1438 1438 0 0 1 30.5-44" style="opacity:.974"/><path d="M45.5 333.5q53.502-.25 107 .5l2.5 2.5q2.485 74.375 1 149a11.53 11.53 0 0 1-3.5 4.5 2861 2861 0 0 1-107 0l-2.5-2.5a2795 2795 0 0 1-1-149 27.3 27.3 0 0 1 3.5-5" style="opacity:.986"/><path d="M358.5 404.5q53.502-.25 107 .5a11.53 11.53 0 0 1 3.5 4.5 771 771 0 0 1-1 78l-2.5 2.5a2861 2861 0 0 1-107 0 11.53 11.53 0 0 1-3.5-4.5 1444 1444 0 0 1 0-76 27.2 27.2 0 0 1 3.5-5" style="opacity:.982"/></svg>