<svg xmlns="http://www.w3.org/2000/svg" width="512" height="512" style="shape-rendering:geometricPrecision;text-rendering:geometricPrecision;image-rendering:optimizeQuality;fill-rule:evenodd;clip-rule:evenodd"><path d="M-.5-.5h55v165h-55z" style="opacity:.995"/><path d="M128.5-.5h134q15.158 3.323 28 12.5a822 822 0 0 1 42 41.5 989 989 0 0 1-77 .5 609 609 0 0 0-21-20.5 195 195 0 0 0-12 11.5l66.5 66.5q8.774 16.088-5.5 27.5-10.024 4.894-20 0-28.768-27.77-57.5-55.5-35.369 30.731-72.5 2a198 198 0 0 0-11 12.5 94.7 94.7 0 0 0 23.5 14.5q.75 22.494.5 45-29.101-1.615-52-19.5a242 242 0 0 0-22-.5v-121q11.607.534 23-1.5a374 374 0 0 0 33-15.5" style="opacity:.98"/><path d="M511.5 72.5v202h-348v-158q22.75.954 42-11a328 328 0 0 1 15.5 15q-.668 3.575-3.5 6.5-15.207 12.433-35 10.5v72q47.5-1.5 46 46h219q-2.75-47.75 45-46v-72q-46.857.644-45-46-77.501.25-155-.5l-18-18q118.499-.75 237-.5" style="opacity:.968"/><path d="M307.5 108.5h123q8 37 45 45 .25 19.506-.5 39-35.884 8.133-44.5 44-92.994 1.5-186 1-7.686-35.938-43.5-45a760 760 0 0 1-.5-39q20.108-3.92 33.5-19a228 228 0 0 1 18.5 17.5q24.294 14.372 46-3.5l1 1q-18.143 36.039 13 61.5 34.93 18.914 61.5-10.5 21.01-35.705-9.5-63.5-23.625-15.133-49-3a40.6 40.6 0 0 0-10.5 8.5q3.963-9.119 4.5-19.5a88.5 88.5 0 0 0-2-14.5" style="opacity:.973"/><path d="M331.5 145.5q35.717-1.535 33.5 34-5.796 20.284-27 22-25.899-2.15-28.5-28 1.636-21.61 22-28" style="opacity:.957"/><path d="M511.5 364.5v147h-55v-147z" style="opacity:.993"/><path d="M402.5 511.5h-144A24404 24404 0 0 1 82.5 407q-9.805-8.633-6.5-21.5 7.4-15.57 24.5-11.5l103 55.5q12.987 35.745 50 26.5a3112 3112 0 0 0 95-26.5 249 249 0 0 1-4-15l-106 27q-24.326-5.651-15.5-29 2.75-3.75 6.5-6.5a4874 4874 0 0 1 115-31 257 257 0 0 1 55 0 435 435 0 0 1 38 21.5q1.5 50.49 1 101a425 425 0 0 0-36 14" style="opacity:.98"/></svg>