<?xml version="1.0" encoding="UTF-8"?>
<svg version="1.1" xmlns="http://www.w3.org/2000/svg" width="6667" height="825">
<path d="M0 0 C4.07683784 -0.00072654 8.15367261 -0.00283223 12.23050952 -0.00549722 C25.90540702 -0.0142429 39.58029692 -0.0189274 53.25519723 -0.01816674 C53.98149428 -0.01812679 54.70779132 -0.01808683 55.45609736 -0.01804566 C56.54700855 -0.01798434 56.54700855 -0.01798434 57.65995836 -0.01792178 C68.60699128 -0.01754407 79.55399474 -0.02535864 90.50101924 -0.03855348 C159.36303475 -0.1199813 228.18195736 0.13281158 297.02079463 2.16725707 C297.92118874 2.19370016 298.82158284 2.22014325 299.74926162 2.24738765 C341.91001689 3.48563219 341.91001689 3.48563219 362.02860713 4.26100707 C362.9172055 4.29485 363.80580386 4.32869292 364.72132945 4.36356139 C465.19893065 8.20148724 565.5917591 14.00158363 765.02079463 31.16725707 C766.24813571 31.28563304 766.24813571 31.28563304 767.50027156 31.40640044 C858.49897896 40.19614862 949.26295763 51.46332569 1176.02079463 86.16725707 C1176.81046878 86.30098472 1177.60014293 86.43471236 1178.4137466 86.57249236 C1231.30201493 95.53263209 1284.01721937 105.29262111 1336.64011073 115.69663024 C1338.95949175 116.15513838 1341.27898292 116.61308575 1343.59849238 117.07094359 C1421.31412362 132.42026827 1498.66154346 149.52385448 1902.2086761 250.41660094 C1905.08706207 251.18494625 1907.96548627 251.95314819 1910.84391475 252.72133422 C1946.92173291 262.35027516 1982.99449767 271.99815938 2019.0632751 281.66090941 C2098.8688449 303.04059293 2178.71563413 324.24334881 2258.78925014 344.59982085 C2261.00317963 345.16277794 2263.21698684 345.72621365 2265.43076777 346.28975463 C2349.90277966 367.7873343 2434.77215966 387.7156432 2581.02079463 418.16725707 C2582.12448012 418.38676528 2582.12448012 418.38676528 2583.25046229 418.610708 C2657.1866899 433.30759429 2731.45310515 446.11703144 2806.02079463 457.16725707 C2806.6872903 457.26622283 2807.35378596 457.36518859 2808.04047847 457.46715331 C2893.05303086 470.08984744 2978.48035033 479.88843215 3388.55302119 502.82619262 C3409.7195189 503.09245079 3430.85254164 503.63805075 3452.02079463 504.16725707 C3452.02079463 610.09725707 3452.02079463 716.02725707 3452.02079463 825.16725707 C1251.91079463 825.16725707 -948.19920537 825.16725707 -3214.97920537 825.16725707 C-3214.97920537 719.23725707 -3214.97920537 613.30725707 -3214.97920537 504.16725707 C-3194.09651191 503.60285995 -3173.24318877 503.05092747 -3152.35988164 502.77965331 C-3070.44534268 501.6729562 -2988.55373671 498.04939754 -2160.30830693 363.01686645 C-2154.60837613 361.5771154 -2148.90633676 360.14600727 -2143.20325017 358.71881652 C-2051.82812358 335.83404782 -1961.04995963 310.56150567 -1870.22661519 285.59819198 C-1855.14461344 281.45284184 -1840.06221598 277.30893507 -1824.97920537 273.16725707 C-1823.77945073 272.83780593 -1822.57969609 272.50835479 -1821.34358525 272.16892028 C-1686.15417145 235.04829039 -1686.15417145 235.04829039 -1621.09381795 218.02951598 C-1615.49097123 216.5637723 -1609.88939197 215.09325593 -1604.2882874 213.62087035 C-1507.92409764 188.29906765 -1411.17013326 164.43566301 -1249.97920537 129.16725707 C-1249.13590169 128.98957793 -1248.29259801 128.81189879 -1247.42373967 128.62883544 C-1160.16077718 110.24998368 -1072.53382936 93.91099806 -155.41670537 2.47975707 C-154.3764634 2.4490084 -153.33622144 2.41825973 -152.26445699 2.38657928 C-150.73356246 2.34143062 -150.73356246 2.34143062 -149.17174077 2.29536986 C-148.28633925 2.26924998 -147.40093774 2.2431301 -146.48870587 2.21621871 C-97.65809193 0.80511086 -48.85168322 0.00493289 0 0 Z " fill="#E7E7E7" transform="translate(3214.9792053699493,-0.16725707054138184)"/>
</svg>
