<svg xmlns="http://www.w3.org/2000/svg" width="512" height="512" style="shape-rendering:geometricPrecision;text-rendering:geometricPrecision;image-rendering:optimizeQuality;fill-rule:evenodd;clip-rule:evenodd"><path d="M-.5-.5h31q-.44 22.806 8 44 58.992 1.5 118 1 7.856-21.78 8-45h31q-2.088 80.182-66 128 84 65.564 60.5 170-15.845 53.208-60.5 86 63.912 47.818 66 128h-31q-.144-23.218-8-45-59.008-.5-118 1-8.438 21.194-8 44h-31v-17q9.535-69.59 66-111-56.463-41.408-66-111v-34q9.535-69.59 66-111-56.463-41.407-66-111zm57 77a1123 1123 0 0 1 82-.5q-17.14 21.042-41 33.5-24.166-11.847-41-33m39 69a10.1 10.1 0 0 1 6 1.5q21.675 12.164 37 32a1680 1680 0 0 1-82 0q16.179-20.952 39-33.5m-57 65h118a184 184 0 0 1 7 29h-132a131.5 131.5 0 0 1 7-29m-7 61h132a184 184 0 0 1-7 29q-59.008.5-118-1a107.8 107.8 0 0 1-7-28m25 61a1123 1123 0 0 1 82-.5q-17.14 21.042-41 33.5-24.166-11.847-41-33m39 69a10.1 10.1 0 0 1 6 1.5q21.675 12.164 37 32a1680 1680 0 0 1-82 0q16.179-20.952 39-33.5" style="opacity:.968"/><path d="M239.5 26.5h32v121h-32z" style="opacity:.937"/><path d="M300.5 26.5h91v121h-91zm31 31h29v59h-29z" style="opacity:.976"/><path d="M420.5 26.5h31v121h-31zM511.5 26.5v121h-31v-121zM358.5 193.5a12.9 12.9 0 0 1 5 .5 7361 7361 0 0 1 72.5 36.5q1 47.5 0 95l-59 30q-.25 38.01-1.5 76a7755 7755 0 0 1-74.5 37 4037 4037 0 0 1-76-38 2208 2208 0 0 1 0-94 4961 4961 0 0 1 59.5-30q1.25-37.99 1.5-76a7338 7338 0 0 0 72.5-37m2 34 44 22q2 28.5 0 57a2658 2658 0 0 0-43.5 22 2658 2658 0 0 0-43.5-22q-2-28.5 0-57a1297 1297 0 0 0 43-22m-61 106a571 571 0 0 1 45.5 22 784 784 0 0 1 0 56 1353 1353 0 0 1-44 22 2753 2753 0 0 1-44.5-22 392.6 392.6 0 0 1 0-56 1297 1297 0 0 0 43-22" style="opacity:.967"/></svg>