<?xml version="1.0" encoding="UTF-8"?>
<!DOCTYPE svg PUBLIC "-//W3C//DTD SVG 1.1//EN" "http://www.w3.org/Graphics/SVG/1.1/DTD/svg11.dtd">
<svg xmlns="http://www.w3.org/2000/svg" version="1.1" width="512px" height="512px" style="shape-rendering:geometricPrecision; text-rendering:geometricPrecision; image-rendering:optimizeQuality; fill-rule:evenodd; clip-rule:evenodd" xmlns:xlink="http://www.w3.org/1999/xlink">
<g><path style="opacity:0.968" fill="#000000" d="M -0.5,-0.5 C 9.83333,-0.5 20.1667,-0.5 30.5,-0.5C 30.2075,14.7042 32.8742,29.3709 38.5,43.5C 77.8277,44.4999 117.161,44.8332 156.5,44.5C 161.737,29.9793 164.404,14.9793 164.5,-0.5C 174.833,-0.5 185.167,-0.5 195.5,-0.5C 194.108,52.9546 172.108,95.6213 129.5,127.5C 185.5,171.209 205.666,227.876 190,297.5C 179.437,332.972 159.27,361.638 129.5,383.5C 172.108,415.379 194.108,458.045 195.5,511.5C 185.167,511.5 174.833,511.5 164.5,511.5C 164.404,496.021 161.737,481.021 156.5,466.5C 117.161,466.167 77.8277,466.5 38.5,467.5C 32.8742,481.629 30.2075,496.296 30.5,511.5C 20.1667,511.5 9.83333,511.5 -0.5,511.5C -0.5,505.833 -0.5,500.167 -0.5,494.5C 5.85711,448.107 27.8571,411.107 65.5,383.5C 27.8582,355.895 5.85817,318.895 -0.5,272.5C -0.5,261.167 -0.5,249.833 -0.5,238.5C 5.85711,192.107 27.8571,155.107 65.5,127.5C 27.8582,99.8952 5.85817,62.8952 -0.5,16.5C -0.5,10.8333 -0.5,5.16667 -0.5,-0.5 Z M 56.5,76.5 C 83.6636,75.3364 110.997,75.1697 138.5,76C 127.074,90.0282 113.407,101.195 97.5,109.5C 81.3891,101.602 67.7224,90.6018 56.5,76.5 Z M 95.5,145.5 C 97.6547,145.372 99.6547,145.872 101.5,147C 115.95,155.109 128.283,165.776 138.5,179C 111.167,179.667 83.8333,179.667 56.5,179C 67.2856,165.032 80.2856,153.866 95.5,145.5 Z M 38.5,210.5 C 77.8333,210.5 117.167,210.5 156.5,210.5C 159.615,219.96 161.948,229.626 163.5,239.5C 119.5,239.5 75.5,239.5 31.5,239.5C 32.7343,229.563 35.0676,219.896 38.5,210.5 Z M 31.5,271.5 C 75.5,271.5 119.5,271.5 163.5,271.5C 161.948,281.374 159.615,291.04 156.5,300.5C 117.161,300.833 77.8277,300.5 38.5,299.5C 34.9094,290.471 32.5761,281.138 31.5,271.5 Z M 56.5,332.5 C 83.6636,331.336 110.997,331.17 138.5,332C 127.074,346.028 113.407,357.195 97.5,365.5C 81.3891,357.602 67.7224,346.602 56.5,332.5 Z M 95.5,401.5 C 97.6547,401.372 99.6547,401.872 101.5,403C 115.95,411.109 128.283,421.776 138.5,435C 111.167,435.667 83.8333,435.667 56.5,435C 67.2856,421.032 80.2856,409.866 95.5,401.5 Z"/></g>
<g><path style="opacity:0.937" fill="#000000" d="M 239.5,26.5 C 250.167,26.5 260.833,26.5 271.5,26.5C 271.5,66.8333 271.5,107.167 271.5,147.5C 260.833,147.5 250.167,147.5 239.5,147.5C 239.5,107.167 239.5,66.8333 239.5,26.5 Z"/></g>
<g><path style="opacity:0.976" fill="#000000" d="M 300.5,26.5 C 330.833,26.5 361.167,26.5 391.5,26.5C 391.5,66.8333 391.5,107.167 391.5,147.5C 361.167,147.5 330.833,147.5 300.5,147.5C 300.5,107.167 300.5,66.8333 300.5,26.5 Z M 331.5,57.5 C 341.167,57.5 350.833,57.5 360.5,57.5C 360.5,77.1667 360.5,96.8333 360.5,116.5C 350.833,116.5 341.167,116.5 331.5,116.5C 331.5,96.8333 331.5,77.1667 331.5,57.5 Z"/></g>
<g><path style="opacity:0.967" fill="#000000" d="M 420.5,26.5 C 430.833,26.5 441.167,26.5 451.5,26.5C 451.5,66.8333 451.5,107.167 451.5,147.5C 441.167,147.5 430.833,147.5 420.5,147.5C 420.5,107.167 420.5,66.8333 420.5,26.5 Z"/></g>
<g><path style="opacity:0.967" fill="#000000" d="M 511.5,26.5 C 511.5,66.8333 511.5,107.167 511.5,147.5C 501.167,147.5 490.833,147.5 480.5,147.5C 480.5,107.167 480.5,66.8333 480.5,26.5C 490.833,26.5 501.167,26.5 511.5,26.5 Z"/></g>
<g><path style="opacity:0.967" fill="#000000" d="M 358.5,193.5 C 360.199,193.34 361.866,193.506 363.5,194C 387.744,206.039 411.911,218.205 436,230.5C 436.667,262.167 436.667,293.833 436,325.5C 416.333,335.5 396.667,345.5 377,355.5C 376.833,380.84 376.333,406.173 375.5,431.5C 350.728,443.969 325.895,456.302 301,468.5C 275.527,456.097 250.194,443.43 225,430.5C 224.333,399.167 224.333,367.833 225,336.5C 244.756,326.372 264.589,316.372 284.5,306.5C 285.333,281.173 285.833,255.84 286,230.5C 310.306,218.265 334.472,205.931 358.5,193.5 Z M 360.5,227.5 C 375.14,234.82 389.807,242.153 404.5,249.5C 405.833,268.5 405.833,287.5 404.5,306.5C 389.922,313.706 375.422,321.039 361,328.5C 346.578,321.039 332.078,313.706 317.5,306.5C 316.167,287.5 316.167,268.5 317.5,249.5C 332.051,242.392 346.384,235.059 360.5,227.5 Z M 299.5,333.5 C 314.955,340.143 330.121,347.477 345,355.5C 345.667,374.167 345.667,392.833 345,411.5C 330.473,419.097 315.806,426.43 301,433.5C 286.105,426.303 271.272,418.969 256.5,411.5C 255.167,392.833 255.167,374.167 256.5,355.5C 271.051,348.392 285.384,341.059 299.5,333.5 Z"/></g>
</svg>
