<?xml version="1.0" standalone="no"?>
<!DOCTYPE svg PUBLIC "-//W3C//DTD SVG 20010904//EN"
 "http://www.w3.org/TR/2001/REC-SVG-20010904/DTD/svg10.dtd">
<svg version="1.0" xmlns="http://www.w3.org/2000/svg"
 width="512.000000pt" height="512.000000pt" viewBox="0 0 512.000000 512.000000"
 preserveAspectRatio="xMidYMid meet">

<g transform="translate(0.000000,512.000000) scale(0.100000,-0.100000)"
fill="#000000" stroke="none">
<path d="M955 4514 c-282 -51 -512 -258 -607 -549 -29 -89 -36 -288 -14 -391
28 -128 101 -266 191 -362 163 -173 346 -254 575 -255 127 -1 223 20 335 73
119 56 165 93 165 133 0 60 38 214 73 300 40 99 105 201 171 270 25 26 46 56
46 68 0 44 -33 178 -62 246 -78 189 -251 356 -444 429 -138 52 -280 65 -429
38z m337 -291 c16 -14 18 -33 18 -145 l0 -128 127 0 c173 0 163 13 163 -211 0
-221 10 -209 -167 -209 l-123 0 0 -129 c0 -169 10 -161 -205 -161 -215 0 -205
-8 -205 161 l0 129 -123 0 c-177 0 -167 -13 -167 215 0 172 1 185 19 195 11 5
76 10 145 10 l126 0 0 135 c0 117 2 135 18 144 9 6 90 11 186 11 144 0 172 -2
188 -17z"/>
<path d="M1000 4017 c0 -172 4 -167 -161 -167 l-129 0 0 -110 0 -110 129 0
c104 0 133 -3 145 -16 13 -12 16 -41 16 -145 l0 -129 105 0 105 0 0 133 c0 90
4 137 12 145 8 8 55 12 145 12 l133 0 0 110 0 110 -135 0 c-123 0 -135 2 -145
19 -5 11 -10 76 -10 145 l0 126 -105 0 -105 0 0 -123z"/>
<path d="M2944 4520 c-12 -4 -31 -21 -43 -36 -20 -26 -21 -35 -21 -324 0 -230
3 -299 13 -303 6 -2 38 -26 70 -52 128 -104 225 -258 276 -436 l27 -94 259 -3
c167 -1 263 -6 271 -13 10 -8 14 -51 16 -154 l3 -144 264 154 264 153 148 4
c131 3 151 5 176 24 53 39 54 52 51 628 -3 488 -4 533 -21 557 -9 14 -29 31
-43 37 -30 14 -1676 16 -1710 2z m1087 -260 c11 -7 19 -21 19 -38 0 -65 -113
-718 -128 -734 -20 -24 -45 -23 -67 2 -18 20 -16 31 43 387 48 289 65 370 78
380 22 16 30 16 55 3z m-317 -191 c24 -36 5 -58 -115 -136 -63 -41 -115 -77
-117 -81 -1 -4 50 -41 114 -82 63 -41 120 -83 125 -93 13 -24 -13 -67 -41 -67
-22 0 -289 167 -329 205 -43 41 -26 60 146 172 87 56 168 102 180 102 12 1 29
-9 37 -20z m614 -83 c87 -57 162 -111 165 -120 4 -10 3 -26 -3 -36 -12 -23
-317 -220 -341 -220 -10 0 -25 7 -34 16 -33 33 -15 56 112 139 67 44 122 82
122 85 1 3 -54 41 -122 85 -127 83 -145 106 -112 139 9 9 25 16 36 16 10 0 90
-47 177 -104z"/>
<path d="M2300 3875 c-154 -32 -249 -83 -365 -200 -69 -68 -101 -109 -132
-170 -126 -243 -141 -540 -47 -900 22 -84 21 -102 -14 -138 -50 -54 -66 -95
-67 -172 0 -77 28 -151 55 -148 8 1 44 14 80 28 35 15 102 34 149 42 47 8 98
21 112 29 73 38 131 118 145 201 5 36 3 42 -33 72 -138 118 -251 320 -289 516
-13 62 -23 89 -36 96 -21 11 -25 61 -5 76 6 6 36 18 66 28 132 43 286 186 372
347 43 80 73 103 102 80 7 -6 40 -55 72 -109 81 -131 222 -274 322 -326 40
-21 105 -45 145 -53 40 -8 78 -20 85 -26 22 -18 15 -56 -12 -74 -14 -9 -25
-24 -25 -34 0 -34 -42 -155 -81 -234 -56 -111 -105 -182 -176 -253 l-61 -62 9
-41 c23 -103 102 -200 176 -218 21 -5 67 -14 103 -19 36 -6 95 -22 130 -37 74
-30 81 -27 101 49 23 83 0 175 -61 244 -17 18 -30 42 -30 51 0 10 15 78 34
151 90 355 67 646 -70 879 -148 251 -460 385 -754 325z"/>
<path d="M2335 3463 c-77 -122 -187 -227 -297 -284 -68 -34 -69 -41 -38 -165
38 -150 122 -295 227 -395 133 -127 243 -140 374 -44 114 84 239 293 278 467
l8 36 -73 27 c-134 49 -290 183 -394 337 -25 37 -47 68 -50 68 -3 0 -18 -21
-35 -47z"/>
<path d="M2520 2423 c-43 -14 -116 -12 -182 3 -22 5 -28 3 -28 -9 0 -39 -45
-130 -86 -175 -24 -28 -44 -52 -44 -55 0 -2 56 -41 124 -86 l124 -83 136 87
c75 48 136 89 136 92 0 3 -18 25 -39 49 -21 24 -49 70 -61 102 -12 31 -25 64
-28 73 -6 14 -12 14 -52 2z"/>
<path d="M2059 2136 c-2 -2 -43 -11 -92 -19 -152 -26 -276 -101 -362 -219 -25
-33 -45 -64 -45 -69 0 -5 170 -8 408 -7 l407 3 3 52 3 52 -148 99 c-173 115
-169 113 -174 108z"/>
<path d="M2642 2038 l-162 -103 0 -57 0 -58 425 0 c234 0 425 3 425 8 0 4 -24
38 -53 77 -89 119 -219 193 -378 215 -36 5 -73 12 -80 15 -8 3 -86 -40 -177
-97z"/>
<path d="M1383 1705 c-11 -8 -23 -25 -27 -39 -6 -25 136 -1045 152 -1086 12
-32 49 -66 85 -79 19 -8 294 -11 855 -11 768 0 829 1 861 18 72 36 69 26 151
601 78 539 80 572 43 598 -13 10 -240 13 -1058 13 -901 0 -1043 -2 -1062 -15z
m1230 -253 c231 -114 286 -413 110 -602 -31 -34 -76 -70 -107 -85 -195 -95
-426 -14 -519 183 -29 61 -32 76 -32 162 0 81 4 103 27 152 46 100 137 180
241 214 26 9 74 13 128 11 74 -3 96 -8 152 -35z"/>
<path d="M2340 1373 c-64 -23 -142 -105 -165 -172 -62 -187 76 -375 275 -375
79 0 148 32 203 93 52 57 70 104 71 186 2 163 -120 287 -283 284 -31 0 -76 -8
-101 -16z"/>
</g>
</svg>
