<svg xmlns="http://www.w3.org/2000/svg" width="682.667" height="682.667" version="1.0" viewBox="0 0 512 512"><path d="M95.5 60.6c-28.2 5.1-51.2 25.8-60.7 54.9-2.9 8.9-3.6 28.8-1.4 39.1 2.8 12.8 10.1 26.6 19.1 36.2 16.3 17.3 34.6 25.4 57.5 25.5 12.7.1 22.3-2 33.5-7.3 11.9-5.6 16.5-9.3 16.5-13.3 0-6 3.8-21.4 7.3-30 4-9.9 10.5-20.1 17.1-27 2.5-2.6 4.6-5.6 4.6-6.8 0-4.4-3.3-17.8-6.2-24.6-7.8-18.9-25.1-35.6-44.4-42.9-13.8-5.2-28-6.5-42.9-3.8m33.7 29.1c1.6 1.4 1.8 3.3 1.8 14.5V117h12.7c17.3 0 16.3-1.3 16.3 21.1 0 22.1 1 20.9-16.7 20.9H131v12.9c0 16.9 1 16.1-20.5 16.1s-20.5.8-20.5-16.1V159H77.7C60 159 61 160.3 61 137.5c0-17.2.1-18.5 1.9-19.5 1.1-.5 7.6-1 14.5-1H90v-13.5c0-11.7.2-13.5 1.8-14.4.9-.6 9-1.1 18.6-1.1 14.4 0 17.2.2 18.8 1.7"/><path d="M100 110.3c0 17.2.4 16.7-16.1 16.7H71v22h12.9c10.4 0 13.3.3 14.5 1.6 1.3 1.2 1.6 4.1 1.6 14.5V178h21v-13.3c0-9 .4-13.7 1.2-14.5s5.5-1.2 14.5-1.2H150v-22h-13.5c-12.3 0-13.5-.2-14.5-1.9-.5-1.1-1-7.6-1-14.5V98h-21zM294.4 60c-1.2.4-3.1 2.1-4.3 3.6-2 2.6-2.1 3.5-2.1 32.4 0 23 .3 29.9 1.3 30.3.6.2 3.8 2.6 7 5.2 12.8 10.4 22.5 25.8 27.6 43.6l2.7 9.4 25.9.3c16.7.1 26.3.6 27.1 1.3 1 .8 1.4 5.1 1.6 15.4l.3 14.4 26.4-15.4 26.4-15.3 14.8-.4c13.1-.3 15.1-.5 17.6-2.4 5.3-3.9 5.4-5.2 5.1-62.8-.3-48.8-.4-53.3-2.1-55.7-.9-1.4-2.9-3.1-4.3-3.7-3-1.4-167.6-1.6-171-.2m108.7 26c1.1.7 1.9 2.1 1.9 3.8 0 6.5-11.3 71.8-12.8 73.4-2 2.4-4.5 2.3-6.7-.2-1.8-2-1.6-3.1 4.3-38.7 4.8-28.9 6.5-37 7.8-38 2.2-1.6 3-1.6 5.5-.3m-31.7 19.1c2.4 3.6.5 5.8-11.5 13.6-6.3 4.1-11.5 7.7-11.7 8.1-.1.4 5 4.1 11.4 8.2 6.3 4.1 12 8.3 12.5 9.3 1.3 2.4-1.3 6.7-4.1 6.7-2.2 0-28.9-16.7-32.9-20.5-4.3-4.1-2.6-6 14.6-17.2 8.7-5.6 16.8-10.2 18-10.2 1.2-.1 2.9.9 3.7 2m61.4 8.3c8.7 5.7 16.2 11.1 16.5 12 .4 1 .3 2.6-.3 3.6-1.2 2.3-31.7 22-34.1 22-1 0-2.5-.7-3.4-1.6-3.3-3.3-1.5-5.6 11.2-13.9 6.7-4.4 12.2-8.2 12.2-8.5.1-.3-5.4-4.1-12.2-8.5-12.7-8.3-14.5-10.6-11.2-13.9.9-.9 2.5-1.6 3.6-1.6 1 0 9 4.7 17.7 10.4M230 124.5c-15.4 3.2-24.9 8.3-36.5 20-6.9 6.8-10.1 10.9-13.2 17-12.6 24.3-14.1 54-4.7 90 2.2 8.4 2.1 10.2-1.4 13.8-5 5.4-6.6 9.5-6.7 17.2 0 7.7 2.8 15.1 5.5 14.8.8-.1 4.4-1.4 8-2.8 3.5-1.5 10.2-3.4 14.9-4.2s9.8-2.1 11.2-2.9c7.3-3.8 13.1-11.8 14.5-20.1.5-3.6.3-4.2-3.3-7.2-13.8-11.8-25.1-32-28.9-51.6-1.3-6.2-2.3-8.9-3.6-9.6-2.1-1.1-2.5-6.1-.5-7.6.6-.6 3.6-1.8 6.6-2.8 13.2-4.3 28.6-18.6 37.2-34.7 4.3-8 7.3-10.3 10.2-8 .7.6 4 5.5 7.2 10.9 8.1 13.1 22.2 27.4 32.2 32.6 4 2.1 10.5 4.5 14.5 5.3s7.8 2 8.5 2.6c2.2 1.8 1.5 5.6-1.2 7.4-1.4.9-2.5 2.4-2.5 3.4 0 3.4-4.2 15.5-8.1 23.4-5.6 11.1-10.5 18.2-17.6 25.3l-6.1 6.2.9 4.1c2.3 10.3 10.2 20 17.6 21.8 2.1.5 6.7 1.4 10.3 1.9 3.6.6 9.5 2.2 13 3.7 7.4 3 8.1 2.7 10.1-4.9 2.3-8.3 0-17.5-6.1-24.4-1.7-1.8-3-4.2-3-5.1 0-1 1.5-7.8 3.4-15.1 9-35.5 6.7-64.6-7-87.9-14.8-25.1-46-38.5-75.4-32.5"/><path d="M233.5 165.7c-7.7 12.2-18.7 22.7-29.7 28.4-6.8 3.4-6.9 4.1-3.8 16.5 3.8 15 12.2 29.5 22.7 39.5 13.3 12.7 24.3 14 37.4 4.4 11.4-8.4 23.9-29.3 27.8-46.7l.8-3.6-7.3-2.7c-13.4-4.9-29-18.3-39.4-33.7-2.5-3.7-4.7-6.8-5-6.8s-1.8 2.1-3.5 4.7M252 269.7c-4.3 1.4-11.6 1.2-18.2-.3-2.2-.5-2.8-.3-2.8.9 0 3.9-4.5 13-8.6 17.5-2.4 2.8-4.4 5.2-4.4 5.5 0 .2 5.6 4.1 12.4 8.6l12.4 8.3 13.6-8.7c7.5-4.8 13.6-8.9 13.6-9.2s-1.8-2.5-3.9-4.9-4.9-7-6.1-10.2c-1.2-3.1-2.5-6.4-2.8-7.3-.6-1.4-1.2-1.4-5.2-.2M205.9 298.4c-.2.2-4.3 1.1-9.2 1.9-15.2 2.6-27.6 10.1-36.2 21.9-2.5 3.3-4.5 6.4-4.5 6.9s17 .8 40.8.7l40.7-.3.3-5.2.3-5.2-14.8-9.9c-17.3-11.5-16.9-11.3-17.4-10.8M264.2 308.2 248 318.5V330h42.5c23.4 0 42.5-.3 42.5-.8 0-.4-2.4-3.8-5.3-7.7-8.9-11.9-21.9-19.3-37.8-21.5-3.6-.5-7.3-1.2-8-1.5-.8-.3-8.6 4-17.7 9.7M138.3 341.5c-1.1.8-2.3 2.5-2.7 3.9-.6 2.5 13.6 104.5 15.2 108.6 1.2 3.2 4.9 6.6 8.5 7.9 1.9.8 29.4 1.1 85.5 1.1 76.8 0 82.9-.1 86.1-1.8 7.2-3.6 6.9-2.6 15.1-60.1 7.8-53.9 8-57.2 4.3-59.8-1.3-1-24-1.3-105.8-1.3-90.1 0-104.3.2-106.2 1.5m123 25.3c23.1 11.4 28.6 41.3 11 60.2-3.1 3.4-7.6 7-10.7 8.5-19.5 9.5-42.6 1.4-51.9-18.3-2.9-6.1-3.2-7.6-3.2-16.2 0-8.1.4-10.3 2.7-15.2 4.6-10 13.7-18 24.1-21.4 2.6-.9 7.4-1.3 12.8-1.1 7.4.3 9.6.8 15.2 3.5"/><path d="M234 374.7c-6.4 2.3-14.2 10.5-16.5 17.2-6.2 18.7 7.6 37.5 27.5 37.5 7.9 0 14.8-3.2 20.3-9.3 5.2-5.7 7-10.4 7.1-18.6.2-16.3-12-28.7-28.3-28.4-3.1 0-7.6.8-10.1 1.6"/></svg>