<svg xmlns="http://www.w3.org/2000/svg" width="512" height="512" style="shape-rendering:geometricPrecision;text-rendering:geometricPrecision;image-rendering:optimizeQuality;fill-rule:evenodd;clip-rule:evenodd"><path d="M232.5-.5h27q7.902 7.255 0 14.5Q127.614 17.801 53 125.5A393 393 0 0 0 37.5 154a219 219 0 0 0 15.5-5.5q9.637 2.262 7 12l-3.5 3.5-32 15q-5.52 1.54-9.5-2.5a713 713 0 0 0-15.5-32v-8q5.277-6.3 13-2.5a141 141 0 0 1 8.5 17.5Q76.515 33.065 204.5 4a862 862 0 0 1 28-4.5" style="opacity:.925"/><path d="M232.5 39.5q23.005-.25 46 .5 8.75 2.75 11.5 11.5l9 38a308.5 308.5 0 0 1 40.5 17.5q2.684.78 5-1l30-19q14.61-6.662 23.5 6.5 1.438 5.882-3.5 9.5-6.732.84-13-1l-34 21a57 57 0 0 0-6.5 1.5 57 57 0 0 0-6.5-1.5 174.1 174.1 0 0 0-43-18q-6.657-4.55-8.5-12.5a706 706 0 0 0-8.5-36 181 181 0 0 0-38 0 1593 1593 0 0 1-10.5 42q-2.25 4.25-6.5 6.5a174.1 174.1 0 0 0-43 18q-7.668 2.79-15-1a1742 1742 0 0 0-33.5-20.5 458 458 0 0 0-26 25q-.78 2.684 1 5l20 32a57 57 0 0 0 1.5 6.5 57 57 0 0 0-1.5 6.5 174.3 174.3 0 0 0-18 43q-4.55 6.657-12.5 8.5a3446 3446 0 0 0-36 8.5 181 181 0 0 0 0 38 966 966 0 0 1 42 10.5q4.25 2.25 6.5 6.5a174.3 174.3 0 0 0 18 43q2.734 8.858-2 17a1551 1551 0 0 0-19.5 31.5 458 458 0 0 0 25 26q2.684.78 5-1l32-20a57 57 0 0 0 6.5-1.5 57 57 0 0 0 6.5 1.5 174.3 174.3 0 0 0 43 18q6.657 4.55 8.5 12.5a706 706 0 0 0 8.5 36 181 181 0 0 0 38 0 1592 1592 0 0 1 10.5-42q2.25-4.25 6.5-6.5a174.3 174.3 0 0 0 43-18q7.668-2.79 15 1a1742 1742 0 0 0 33.5 20.5 458 458 0 0 0 26-25q.78-2.684-1-5l-20-32a57 57 0 0 0-1.5-6.5 88.7 88.7 0 0 1 9.5-21.5 857 857 0 0 1 12-31 26 26 0 0 1 7.5-4.5 4045 4045 0 0 0 39-9.5 181 181 0 0 0 0-38 4045 4045 0 0 0-39-9.5 26 26 0 0 1-7.5-4.5 1209 1209 0 0 0-12-31 88.7 88.7 0 0 1-9.5-21.5 57 57 0 0 0 1.5-6.5l21-34a285 285 0 0 0-1.5-9q1.848-10.677 12-6.5 10.689 9.513 4.5 22.5a531 531 0 0 0-20.5 33.5 385 385 0 0 1 18 42 1834 1834 0 0 1 41 10q6.475 3.472 8.5 10.5a529 529 0 0 1 0 46q-2.75 8.75-11.5 11.5l-38 9a385 385 0 0 1-18 42 1939 1939 0 0 0 21.5 35.5q3.132 8.216-1 16L392.5 424q-7.784 4.132-16 1a1939 1939 0 0 0-35.5-21.5 385 385 0 0 1-42 18 1834 1834 0 0 1-10 41q-3.472 6.475-10.5 8.5a529 529 0 0 1-46 0q-8.75-2.75-11.5-11.5l-9-38a385 385 0 0 1-42-18 1939 1939 0 0 0-35.5 21.5q-8.216 3.132-16-1L87 392.5q-4.046-7.808-1-16a1940 1940 0 0 0 21.5-35.5 385 385 0 0 1-18-42 1833 1833 0 0 1-41-10q-6.475-3.472-8.5-10.5a529 529 0 0 1 0-46q2.75-8.75 11.5-11.5l38-9a385 385 0 0 1 18-42A1940 1940 0 0 0 86 134.5q-3.046-8.192 1-16L118.5 87q7.784-4.131 16-1a1940 1940 0 0 0 35.5 21.5 385 385 0 0 1 42-18 1833 1833 0 0 1 10-41q3.733-6.5 10.5-9m13 170q1.736 13.736.5 28-14.39-8.17-7-23 2.948-3.075 6.5-5m17 53q13.123 2.885 14 16.5-.9 13.623-13 19.5a325 325 0 0 1-1-36" style="opacity:.925"/><path d="M240.5 116.5q90.886-5.192 137.5 72 33 67 0 134-46.578 77.42-137.5 71.5-39.487-4.13-70.5-28.5-4.822-13.62 9.5-12.5 53.046 38.653 116 19 70.617-27.425 82.5-102.5 4.938-76.87-58.5-119.5-54.12-30.362-112-8-79.467 38.637-74.5 127.5 4.369 35.217 26 63 2.433 13.935-11.5 10.5-36.089-44.789-30.5-102.5 9.544-71.481 71.5-107.5 24.798-12.685 52-16.5m5 93q-3.552 1.925-6.5 5-7.39 14.83 7 23 1.236-14.264-.5-28m17 53a325 325 0 0 0 1 36q12.1-5.877 13-19.5-.877-13.615-14-16.5" style="opacity:.923"/><path d="M245.5 148.5q39.432-2.394 72 19.5 4.147 4.493 2.5 10.5-3.77 5.567-10.5 3.5-58.817-37.065-114 5-50.148 50.53-18.5 114.5 40.254 59.228 109.5 39.5 61.81-26.836 59.5-94.5-2.547-23.583-16-43-1.862-15.4 12.5-10 29.414 42.771 15.5 93-23.278 65.768-92.5 75.5-65.229 3.26-101.5-50.5-33.505-62.38 6-121 29.387-36.068 75.5-42m0 61q-3.552 1.925-6.5 5-7.39 14.83 7 23 1.236-14.264-.5-28m17 53a325 325 0 0 0 1 36q12.1-5.877 13-19.5-.877-13.615-14-16.5" style="opacity:.926"/><path d="M252.5 178.5q14.15.896 10 15 12.49 2.12 21.5 11 2.73 12.253-9.5 11.5a194 194 0 0 0-11.5-6.5 306 306 0 0 0 0 35q36.934 10.872 27 48-7.219 19.463-27.5 23a85 85 0 0 1-.5 13q-7 8-14 0-2.031-5.794-1.5-12-15.262-.759-26.5-11-4.177-10.152 6.5-12a128 128 0 0 0 20 7 507 507 0 0 0-1-45q-36.269-15.572-19.5-51 8.247-9.249 20.5-11-2.129-9.807 6-15m-7 31q-3.552 1.925-6.5 5-7.39 14.83 7 23 1.236-14.264-.5-28m17 53a325 325 0 0 0 1 36q12.1-5.877 13-19.5-.877-13.615-14-16.5" style="opacity:.934"/><path d="M511.5 366.5v8q-5.277 6.3-13 2.5a141 141 0 0 1-8.5-17.5Q441.356 465.135 330.5 501q-26.264 7.537-53 10.5h-26q-7.902-7.256 0-14.5 131.893-3.805 206.5-111.5a393 393 0 0 0 15.5-28.5 219 219 0 0 0-15.5 5.5q-9.637-2.262-7-12l3.5-3.5 32-15q5.52-1.54 9.5 2.5a712 712 0 0 0 15.5 32" style="opacity:.925"/></svg>