<svg xmlns="http://www.w3.org/2000/svg" width="512" height="512" style="shape-rendering:geometricPrecision;text-rendering:geometricPrecision;image-rendering:optimizeQuality;fill-rule:evenodd;clip-rule:evenodd"><path d="M92.5-.5h277q-20.312 23.644-22.5 55l-1 157q-101.805 5.128-149 95-39.846 94.922 23 176a608 608 0 0 1 20.5 21q-4.006 5.47-10 8h-9a39 39 0 0 0-5-2.5 608 608 0 0 0-21-20.5 608 608 0 0 0-21 20.5 39 39 0 0 0-5 2.5h-9q-13.765-9.997-25.5-23a263.5 263.5 0 0 1-24.5 23h-10a286 286 0 0 1-25.5-24 286 286 0 0 1-25.5 24h-10q-6.506-3.258-9.5-10a48178 48178 0 0 1 0-439Q37.29 22.172 74.5 5a190 190 0 0 1 18-5.5m99 77q16.224-1.022 18.5 15 .75 14.492.5 29a230.5 230.5 0 0 1 35 1.5q16.723 11.784 2 26a55 55 0 0 1-7 2q-14.991.75-30 .5.25 14.508-.5 29-3.832 19.789-22.5 12.5-6.367-4.583-6.5-12.5-.75-14.492-.5-29-15.009.25-30-.5-18.729-4.709-11.5-22.5a25.6 25.6 0 0 1 6.5-5.5 230.5 230.5 0 0 1 35-1.5 218.6 218.6 0 0 1 1.5-34q2.994-6.743 9.5-10m-91 150q55.503-.25 111 .5 11.707 5.671 8.5 18.5-3.31 8.538-12.5 9.5-51.5 1-103 0-15.86-3.453-12.5-19.5 2.532-6.278 8.5-9m0 60q35.004-.25 70 .5 16.45 10.278 4 25a20.5 20.5 0 0 1-8 3 961 961 0 0 1-62 0q-12.313-2.064-14-14.5 1.374-9.8 10-14m4 59q26.005-.25 52 .5 12.313 2.064 14 14.5-1.91 9.144-10 13.5-30 1-60 0-14.34-8.11-6.5-22.5 4.603-4.419 10.5-6" style="opacity:.99"/><path d="M417.5-.5h21q33.972 8.723 42.5 43 1 79.5 0 159-3.011 8.006-11.5 9.5-47.498.75-95 .5a5002 5002 0 0 1 1.5-170q9.024-32.772 41.5-42" style="opacity:.985"/><path d="M362.5 511.5h-33q-84.86-14.598-113.5-96-20.721-81.89 39.5-140.5 61.193-50.136 137-26 78.87 32.42 88.5 117.5 2.9 87.486-72.5 130.5-22.007 10.991-46 14.5m-21-210q17.08-1.907 19 15 15.09 2.845 19 17.5-2.266 16.761-19 14-7.467-6.157-17-5-6.399 2.049-4.5 8.5a696 696 0 0 0 27.5 13.5q32.823 23.623 10.5 57.5a50.9 50.9 0 0 1-15.5 11q-1.882 14.38-16 17-13.272-2.559-14-16-12.316-1.686-21.5-10-9.253-18.999 11.5-24l17 6.5q10.175 2.556 17.5-4.5 3.759-7.709-3.5-12.5a269 269 0 0 1-29-14q-27.447-26.447-1-54 4.179-3.09 9-4.5-.288-11.446 10-16" style="opacity:.984"/></svg>