<svg xmlns="http://www.w3.org/2000/svg" width="512" height="512" style="shape-rendering:geometricPrecision;text-rendering:geometricPrecision;image-rendering:optimizeQuality;fill-rule:evenodd;clip-rule:evenodd"><path d="M107.5 64.5a11536 11536 0 0 1 263-.5q9.25 3.25 12.5 12.5.75 153.5.5 307a7216 7216 0 0 0-206 1.5q-10.529 3.526-15.5 13.5a459 459 0 0 0-4 36 17.8 17.8 0 0 1-5.5 4.5q-8.854.005-13 7.5-8.549-3.298-11.5-12l-1-351q-1.672-17.923-19.5-19m206 40q25.52-2.223 29.5 23a961 961 0 0 1-1 86q-10.78 24.764-35.5 13.5-9.777-7.303-10.5-19.5a961 961 0 0 1 1-86q4.529-12.276 16.5-17m-64 32q25.52-2.223 29.5 23a389.6 389.6 0 0 1-1 54q-10.78 24.764-35.5 13.5-9.777-7.303-10.5-19.5a389.6 389.6 0 0 1 1-54q4.529-12.276 16.5-17m-64 32q31.083-.414 30 31 2.292 22.197-18 30.5-21.159 3.549-28.5-16.5-3.303-15.64 1-31 5.238-9.999 15.5-14m-10 99q80.002-.25 160 .5 6 3.5 0 7-80 1-160 0-5.879-3.74 0-7.5m0 32q80.002-.25 160 .5 6 3.5 0 7-80 1-160 0-5.879-3.74 0-7.5m0 32q80.002-.25 160 .5 6 3.5 0 7-80 1-160 0-5.879-3.74 0-7.5" style="opacity:.993"/><path d="M98.5 64.5q2.826 1.323 4 4.5a102 102 0 0 0 12 4 17.8 17.8 0 0 1 4.5 5.5q.75 20.494.5 41-11.011.25-22-.5-6.75-2.75-9.5-9.5-1-16.5 0-33 2.945-8.184 10.5-12" style="opacity:.971"/><path d="M313.5 111.5q14.79-3.225 21.5 10 1 46 0 92-4.21 10.48-15.5 10-11.29.48-15.5-10a2115 2115 0 0 1 0-92q3.033-6.78 9.5-10" style="opacity:.984"/><path d="M249.5 143.5q14.79-3.225 21.5 10 1 30 0 60-6.71 13.473-21.5 9.5-6.75-2.75-9.5-9.5-1-30 0-60 3.033-6.78 9.5-10" style="opacity:.977"/><path d="M185.5 175.5q14.79-3.225 21.5 10 1 14 0 28-6.71 13.473-21.5 9.5-6.75-2.75-9.5-9.5a196 196 0 0 1 0-28q3.033-6.78 9.5-10" style="opacity:.96"/><path d="M177.5 391.5q118-.25 236 .5 6.75 2.75 9.5 9.5 1 16.5 0 33-3.25 9.25-12.5 12.5-131.5 1-263 0 17.75-1.75 19.5-19.5l1-26q3.033-6.78 9.5-10" style="opacity:.995"/></svg>